<?xml version="1.0" encoding="utf-8"?>
<!-- Generator: Adobe Illustrator 25.2.1, SVG Export Plug-In . SVG Version: 6.00 Build 0)  -->
<svg version="1.1" id="图层_1" xmlns="http://www.w3.org/2000/svg" xmlns:xlink="http://www.w3.org/1999/xlink" x="0px" y="0px"
	 viewBox="0 0 500 500" style="enable-background:new 0 0 500 500;" xml:space="preserve">
<style type="text/css">
	.st0{fill:#17F700;}
</style>
<g>
	<path class="st0" d="M41,258.3c0.1,2.2-1.7,4-4,4.1c-1.9,0.1-3.9-1.7-3.9-3.8c-0.1-2.3,1.6-4.2,3.6-4.3
		C39.1,254.3,41,255.9,41,258.3z"/>
	<path class="st0" d="M16.6,181.2l37.2,9.5c5.6,1.4,9.1,2.4,10.7,2.9s2.9,1.4,3.9,2.7s1.6,2.7,1.7,4.5c0.1,1.7-0.3,4.2-1.1,7.4
		l-1.8,7.3l-9.7-2.5c0.3-0.9,0.5-1.5,0.6-1.9c0.3-1,0.2-1.9-0.1-2.6c-0.4-0.7-0.9-1.2-1.6-1.5c-0.7-0.3-2.1-0.7-4.2-1.2l-39.2-10
		L16.6,181.2z"/>
	<path class="st0" d="M38.8,128.2L73.4,145c3.9,1.9,6.6,3.4,8.1,4.4s2.7,2.6,3.8,4.6c1.1,2.1,1.5,4.3,1.4,6.8s-0.9,5.1-2.2,7.9
		c-1.5,3.1-3.3,5.6-5.5,7.4c-2.2,1.9-4.4,3-6.6,3.4s-4.3,0.2-6.2-0.4c-1.9-0.7-5.8-2.4-11.6-5.3L23.9,159l6.5-13.4l38.8,18.8
		c2.3,1.1,3.8,1.7,4.5,1.7c0.7,0.1,1.3-0.3,1.7-1c0.4-0.9,0.3-1.6-0.2-2.1c-0.6-0.6-2.1-1.5-4.7-2.7l-38.1-18.5L38.8,128.2z"/>
	<path class="st0" d="M86.2,93.7l-8.8,10.7l-3.3-2.7c-1.5-1.3-2.6-1.9-3.3-2c-0.6-0.1-1.2,0.2-1.8,0.8c-0.6,0.7-0.7,1.5-0.5,2.3
		c0.3,0.8,1,1.7,2.1,2.7c1.5,1.2,2.8,1.9,3.8,2.2c1.1,0.2,2.9-0.1,5.4-1c7.3-2.6,12.5-3.8,15.5-3.5c3.1,0.3,6.7,2.2,11.1,5.8
		c3.2,2.6,5.2,4.9,6.1,6.9s1,4.4,0.2,7.4c-0.7,3-2.3,5.8-4.6,8.6c-2.5,3.1-5.3,5.2-8.3,6.4s-5.6,1.4-8,0.6c-2.4-0.8-5.2-2.6-8.5-5.3
		l-2.9-2.4l8.8-10.7l5.4,4.5c1.7,1.4,2.9,2.1,3.6,2.2s1.4-0.2,2-1s0.8-1.6,0.5-2.5s-1-1.8-2.2-2.8c-2.6-2.2-4.6-3.2-6-3.2
		c-1.4,0.1-4.2,0.8-8.5,2.1c-4.3,1.3-7.2,2.1-8.8,2.3c-1.6,0.2-3.4,0-5.5-0.6c-2-0.6-4.2-1.9-6.6-3.9c-3.4-2.8-5.5-5.3-6.4-7.5
		s-0.9-4.6-0.2-7.2c0.7-2.7,2.2-5.4,4.5-8.1c2.5-3,5.1-5.1,7.8-6.4s5.1-1.7,7.1-1.2s4.8,2.3,8.3,5.2L86.2,93.7z"/>
	<path class="st0" d="M114.6,47.3l7,9.1l-7,5.4l28,36.5l-11.9,9.1l-28-36.5l-7,5.4l-7-9.1L114.6,47.3z"/>
	<path class="st0" d="M181.9,16.3L208.4,68L194,72.9l-4.1-9.5l-5.1,1.7l2.5,10.1l-14.6,5l-11.2-56.9L181.9,16.3z M186.2,53.8
		c-2.8-5.9-6.1-13.3-9.9-22.1c2.1,10.9,3.8,18.8,5,23.8L186.2,53.8z"/>
	<path class="st0" d="M271.2,7.1l-1,57.5L257,64.3L249.7,38l-0.5,26.1L236.8,64l1-57.5l12.5,0.2l7.9,26l0.5-25.9L271.2,7.1z"/>
	<path class="st0" d="M320.9,52c-1.5,5.6-2.7,9.5-3.6,11.7s-2.3,4.1-4.2,5.7s-4.2,2.5-6.8,2.9c-2.6,0.4-5.5,0.2-8.6-0.7
		c-3-0.8-5.5-2-7.6-3.6s-3.6-3.6-4.5-5.9c-0.9-2.3-1.2-4.7-0.9-7c0.3-2.4,1.3-6.4,2.8-12.1l2.6-9.5c1.5-5.6,2.7-9.5,3.6-11.7
		s2.3-4.1,4.2-5.7s4.2-2.5,6.8-2.9c2.6-0.4,5.5-0.2,8.6,0.7c3,0.8,5.5,2,7.6,3.6s3.6,3.6,4.5,5.9s1.2,4.7,0.9,7
		c-0.3,2.4-1.3,6.4-2.8,12.1L320.9,52z M311.4,29.9c0.7-2.6,1-4.3,0.9-5.1s-0.6-1.3-1.5-1.6c-0.8-0.2-1.4-0.1-2,0.4s-1.2,2.1-2,5
		l-7,25.9c-0.9,3.2-1.3,5.2-1.2,6.1c0.1,0.8,0.6,1.4,1.5,1.6c1,0.3,1.7,0,2.2-0.8s1.2-2.8,2.1-6.1L311.4,29.9z"/>
	<path class="st0" d="M353.1,29l13,7.2c4.1,2.3,7.1,4.3,8.8,6.1c1.8,1.8,2.8,4.1,3,6.7s-0.9,6.2-3.3,10.5c-1.6,2.9-3.2,4.7-4.8,5.4
		c-1.6,0.6-3.9,0.5-6.9-0.3c2.6,2.4,4.1,4.6,4.3,6.8c0.2,2.2-0.6,4.9-2.4,8.2l-2.6,4.7c-1.9,3.4-3.7,5.7-5.3,6.9
		c-1.7,1.2-3.5,1.6-5.6,1.3c-2-0.3-5.7-2-10.9-4.9l-15.1-8.4L353.1,29z M350.8,63.9L343.1,78c1.9,1,3.2,1.3,4,1.1
		c0.8-0.2,1.8-1.4,2.9-3.4l2.6-4.7c1.2-2.2,1.7-3.6,1.5-4.3C353.8,66,352.8,65,350.8,63.9z M361.4,44.9l-6.2,11.2
		c0.6,0.3,1,0.5,1.3,0.7c1.3,0.7,2.3,0.8,3,0.4c0.7-0.4,1.9-2.1,3.5-5.1c0.9-1.6,1.3-2.8,1.4-3.5s-0.1-1.4-0.5-1.8
		C363.6,46.2,362.7,45.7,361.4,44.9z"/>
	<path class="st0" d="M405.8,108.7c-3.9,4.2-6.8,7.1-8.7,8.7c-1.8,1.6-4,2.6-6.4,3.1s-4.9,0.3-7.4-0.6s-4.9-2.4-7.3-4.7
		c-2.2-2.1-3.9-4.4-5-6.8s-1.5-4.9-1.2-7.3c0.3-2.5,1.1-4.7,2.5-6.6s4.1-5,8.2-9.4l6.7-7.2c3.9-4.2,6.8-7.1,8.7-8.7
		c1.8-1.6,4-2.6,6.4-3.1s4.9-0.3,7.4,0.6s4.9,2.4,7.3,4.7c2.2,2.1,3.9,4.4,5,6.8s1.5,4.9,1.2,7.3c-0.3,2.5-1.1,4.7-2.5,6.6
		s-4.1,5-8.2,9.4L405.8,108.7z M407.8,84.7c1.8-2,2.9-3.3,3.2-4.1c0.3-0.7,0.1-1.4-0.6-2.1c-0.6-0.5-1.2-0.7-1.9-0.6
		c-0.7,0.2-2.1,1.3-4.1,3.5L386,101.1c-2.3,2.4-3.6,4-3.9,4.8s-0.1,1.5,0.6,2.2s1.5,0.8,2.3,0.3s2.4-1.9,4.7-4.4L407.8,84.7z"/>
	<path class="st0" d="M445,103.6l6.1,9.4c3.9,6.1,6.3,10.3,7.1,12.8c0.8,2.5,1,4.7,0.4,6.6c-0.6,1.9-1.5,3.5-2.9,4.8
		s-4.4,3.4-8.9,6.4l-16.9,10.9c-4.3,2.8-7.4,4.5-9.1,5s-3.3,0.6-4.8,0.1s-2.9-1.4-4.2-2.6c-1.3-1.3-2.9-3.4-4.8-6.4l-10.2-15.8
		L445,103.6z M444.9,121.5L413.1,142c1.2,1.8,2.2,2.7,3.2,2.6c1-0.1,3.1-1.1,6.3-3.2l18.8-12.1c2.2-1.4,3.5-2.4,4.1-2.9
		s0.8-1.1,0.7-1.8C446.2,123.9,445.8,122.9,444.9,121.5z"/>
	<path class="st0" d="M485,185.1l-38.2,2l-19.6,7l-4.6-13l19.6-7l31-22.2l4.6,12.9c-9.9,5.8-16.6,9.5-20.1,11
		c6.1-1.3,13.6-2.5,22.7-3.7L485,185.1z"/>
	<path class="st0" d="M459.1,244c-0.1-2.2,1.8-4,4-4c1.9-0.1,3.8,1.7,3.9,3.8c0.1,2.3-1.6,4.2-3.7,4.3
		C461,248.1,459.2,246.5,459.1,244z"/>
	<path class="st0" d="M482.7,321.4l-37.1-9.9c-5.6-1.5-9.1-2.5-10.7-3s-2.9-1.4-3.9-2.7c-1-1.3-1.6-2.8-1.7-4.5s0.3-4.2,1.2-7.4
		l1.9-7.2l9.7,2.6c-0.3,0.8-0.5,1.5-0.6,1.9c-0.3,1-0.2,1.9,0.1,2.6c0.3,0.7,0.9,1.2,1.6,1.5s2.1,0.7,4.2,1.3l39.1,10.4L482.7,321.4
		z"/>
	<path class="st0" d="M459.9,374.1l-34.4-17.2c-3.9-1.9-6.6-3.4-8-4.5s-2.7-2.6-3.7-4.7s-1.5-4.4-1.3-6.8c0.2-2.5,0.9-5.1,2.3-7.9
		c1.5-3.1,3.4-5.5,5.6-7.4s4.4-2.9,6.6-3.3c2.2-0.3,4.3-0.2,6.2,0.5c1.9,0.7,5.8,2.5,11.6,5.4l30.4,15.2l-6.7,13.4L430,337.5
		c-2.2-1.1-3.7-1.7-4.5-1.8c-0.7-0.1-1.3,0.3-1.7,1c-0.4,0.8-0.4,1.6,0.2,2.2s2.1,1.5,4.7,2.8l37.9,18.9L459.9,374.1z"/>
	<path class="st0" d="M412.1,408.1l9-10.6l3.3,2.8c1.5,1.3,2.6,2,3.2,2c0.6,0.1,1.2-0.2,1.8-0.8c0.6-0.7,0.7-1.4,0.5-2.3
		c-0.3-0.8-1-1.7-2.1-2.7c-1.5-1.2-2.7-2-3.8-2.2c-1.1-0.2-2.9,0.1-5.4,1c-7.3,2.5-12.5,3.6-15.5,3.3c-3-0.3-6.7-2.3-11-5.9
		c-3.1-2.6-5.1-5-6-6.9c-0.9-2-0.9-4.5-0.1-7.4s2.3-5.8,4.7-8.6c2.6-3.1,5.4-5.2,8.4-6.3s5.7-1.3,8-0.5c2.4,0.8,5.2,2.7,8.5,5.4
		l2.9,2.4l-9,10.6l-5.3-4.5c-1.6-1.4-2.8-2.1-3.5-2.2s-1.4,0.2-2,1s-0.8,1.6-0.5,2.5s1,1.8,2.2,2.8c2.6,2.2,4.6,3.3,6,3.2
		c1.4,0,4.2-0.7,8.5-2c4.3-1.2,7.2-2,8.9-2.2c1.6-0.2,3.5,0,5.5,0.7s4.2,2,6.5,4c3.4,2.8,5.5,5.4,6.3,7.5c0.8,2.2,0.9,4.6,0.1,7.2
		c-0.7,2.7-2.3,5.3-4.6,8c-2.5,3-5.1,5.1-7.8,6.4s-5.1,1.6-7.1,1.1c-2-0.6-4.8-2.3-8.3-5.3L412.1,408.1z"/>
	<path class="st0" d="M383.1,454.2l-6.9-9.2l7.1-5.3l-27.6-36.8l12-9l27.6,36.8l7.1-5.3l6.9,9.2L383.1,454.2z"/>
	<path class="st0" d="M315.5,484.4l-25.9-52l14.5-4.7l4,9.6l5.1-1.7l-2.3-10.1l14.7-4.8l10.6,57L315.5,484.4z M311.6,446.8
		c2.7,6,6,13.4,9.6,22.2c-2-10.9-3.5-18.9-4.8-23.8L311.6,446.8z"/>
	<path class="st0" d="M226.1,492.6l1.7-57.5l13.1,0.4l7,26.3l0.8-26.1l12.5,0.4l-1.7,57.5l-12.5-0.4l-7.6-26.1l-0.8,25.9
		L226.1,492.6z"/>
	<path class="st0" d="M176.9,447.1c1.6-5.6,2.8-9.5,3.7-11.7s2.3-4.1,4.2-5.6s4.2-2.5,6.8-2.8c2.6-0.4,5.5-0.1,8.6,0.8
		c3,0.8,5.5,2.1,7.6,3.7s3.6,3.6,4.5,6c0.9,2.3,1.2,4.7,0.8,7c-0.4,2.4-1.4,6.4-3,12.1l-2.7,9.5c-1.6,5.6-2.8,9.5-3.7,11.7
		s-2.3,4.1-4.2,5.6s-4.2,2.5-6.8,2.8c-2.6,0.4-5.5,0.1-8.6-0.8c-3-0.8-5.5-2.1-7.6-3.7s-3.6-3.6-4.5-6c-0.9-2.3-1.2-4.7-0.8-7
		c0.4-2.4,1.4-6.4,3-12.1L176.9,447.1z M186.2,469.3c-0.7,2.6-1,4.3-1,5.1c0.1,0.8,0.6,1.3,1.5,1.6c0.8,0.2,1.4,0.1,2-0.4
		s1.2-2.1,2-5l7.3-25.8c0.9-3.2,1.3-5.2,1.3-6.1c-0.1-0.8-0.6-1.4-1.5-1.6c-1-0.3-1.7,0-2.2,0.8s-1.2,2.8-2.1,6.1L186.2,469.3z"/>
	<path class="st0" d="M144.5,469.7l-13-7.4c-4.1-2.3-7-4.4-8.8-6.2c-1.7-1.8-2.7-4.1-2.9-6.8c-0.2-2.7,0.9-6.2,3.4-10.5
		c1.7-2.9,3.3-4.7,4.8-5.3c1.6-0.6,3.9-0.5,6.9,0.4c-2.6-2.4-4-4.7-4.2-6.9c-0.2-2.2,0.7-4.9,2.5-8.2l2.6-4.6
		c1.9-3.4,3.7-5.7,5.4-6.8c1.7-1.2,3.6-1.6,5.6-1.2s5.7,2,10.9,5l15,8.5L144.5,469.7z M136.4,453.8l6.3-11.1c-0.6-0.3-1-0.5-1.3-0.7
		c-1.3-0.7-2.3-0.9-3-0.4c-0.7,0.4-1.9,2.1-3.6,5.1c-0.9,1.6-1.4,2.7-1.4,3.5s0.1,1.4,0.5,1.8C134.2,452.4,135.1,453,136.4,453.8z
		 M147.1,434.9l7.9-14c-1.9-1-3.2-1.4-4-1.1c-0.8,0.2-1.8,1.3-2.9,3.4l-2.6,4.7c-1.2,2.1-1.7,3.6-1.5,4.3
		C144.2,432.8,145.2,433.7,147.1,434.9z"/>
	<path class="st0" d="M92.7,389.5c4-4.2,6.9-7,8.8-8.6c1.9-1.5,4-2.5,6.4-3c2.4-0.4,4.9-0.2,7.4,0.7c2.5,0.9,4.9,2.5,7.3,4.7
		c2.2,2.1,3.9,4.4,4.9,6.8c1.1,2.4,1.5,4.9,1.1,7.4c-0.3,2.5-1.2,4.7-2.6,6.6s-4.2,5-8.3,9.3l-6.8,7.1c-4,4.2-6.9,7-8.8,8.6
		c-1.9,1.5-4,2.5-6.4,3c-2.4,0.4-4.9,0.2-7.4-0.7c-2.5-0.9-4.9-2.5-7.3-4.7c-2.2-2.1-3.9-4.4-4.9-6.8c-1.1-2.4-1.5-4.9-1.1-7.4
		c0.3-2.5,1.2-4.7,2.6-6.6s4.2-5,8.3-9.3L92.7,389.5z M90.4,413.4c-1.8,1.9-2.9,3.3-3.2,4c-0.3,0.7-0.1,1.4,0.5,2.1
		c0.6,0.5,1.2,0.7,1.9,0.6c0.7-0.1,2.1-1.3,4.1-3.4l18.6-19.4c2.3-2.4,3.6-4,4-4.7c0.3-0.8,0.2-1.5-0.6-2.2
		c-0.7-0.7-1.5-0.8-2.3-0.4c-0.8,0.5-2.4,1.9-4.7,4.3L90.4,413.4z"/>
	<path class="st0" d="M53.4,394.1l-6-9.5c-3.8-6.1-6.2-10.4-7-12.9s-0.9-4.7-0.3-6.7c0.6-1.9,1.6-3.5,3-4.8s4.4-3.4,9-6.3l17-10.7
		c4.4-2.7,7.4-4.4,9.1-4.9s3.3-0.5,4.8,0s2.8,1.4,4.1,2.7c1.3,1.3,2.9,3.5,4.8,6.5l10,16L53.4,394.1z M53.8,376.2l32-20.1
		c-1.1-1.8-2.2-2.7-3.2-2.7s-3.1,1.1-6.4,3.1l-18.9,11.9c-2.2,1.4-3.6,2.3-4.1,2.9c-0.5,0.5-0.8,1.1-0.8,1.8
		C52.4,373.8,52.9,374.8,53.8,376.2z"/>
	<path class="st0" d="M14.3,312.2l38.2-1.6l19.7-6.8l4.5,13.1L57,323.7l-31.3,21.8l-4.5-13c9.9-5.7,16.7-9.3,20.2-10.8
		c-6.1,1.2-13.7,2.3-22.8,3.4L14.3,312.2z"/>
</g>
</svg>
